<svg width="32" height="32" viewBox="0 0 32 32" fill="none" xmlns="http://www.w3.org/2000/svg">
<path d="M19.6664 9.33314C18.0678 9.33314 16.7478 10.0678 15.9998 11.2451C15.2518 10.0678 13.9318 9.33314 12.3331 9.33314C9.94375 9.33314 7.99975 11.4265 7.99975 13.9998C7.99975 18.4838 15.3051 23.6611 15.6171 23.8785C15.7318 23.9598 15.8664 23.9998 15.9998 23.9998C16.1331 23.9998 16.2678 23.9598 16.3824 23.8785C16.6931 23.6611 23.9998 18.4838 23.9998 13.9998C23.9998 11.4265 22.0558 9.33314 19.6664 9.33314ZM15.9998 22.5105C13.8331 20.9065 9.33308 16.9598 9.33308 13.9998C9.33308 12.1611 10.6784 10.6665 12.3331 10.6665C14.0998 10.6665 15.3331 11.8878 15.3331 13.6371V13.9998C15.3331 14.3678 15.6318 14.6665 15.9998 14.6665C16.3678 14.6665 16.6664 14.3678 16.6664 13.9998V13.6371C16.6664 11.8878 17.8998 10.6665 19.6664 10.6665C21.3211 10.6665 22.6664 12.1611 22.6664 13.9998C22.6664 16.9598 18.1664 20.9065 15.9998 22.5105ZM17.1158 0.0371433C12.4798 -0.277523 7.94775 1.41848 4.67708 4.69314C1.40908 7.96914 -0.281583 12.5051 0.0384175 17.1385C0.626418 25.6105 8.13708 31.9998 17.5104 31.9998H25.9998C29.3078 31.9998 31.9998 29.3078 31.9998 25.9998V16.4731C31.9998 7.82514 25.4624 0.605143 17.1158 0.0371433ZM30.6664 25.9998C30.6664 28.5731 28.5731 30.6665 25.9998 30.6665H17.5104C8.70508 30.6665 1.91708 24.9385 1.37042 17.0478C1.07575 12.7971 2.62508 8.63714 5.62108 5.63581C8.38242 2.87181 12.1251 1.33314 16.0211 1.33314C16.3544 1.33314 16.6904 1.34381 17.0251 1.36648C24.6744 1.88648 30.6651 8.52114 30.6651 16.4718V25.9985L30.6664 25.9998Z" fill="#E5847B"/>
</svg>
